:SAMPLES-PER-SECOND 30
:FULLY-SPECIFIED
:DEGREES
80
root  23.6832 33.9649 -1.82327 131.457 -81.1873 -118.749
RightUpLeg  -32.8932 -9.60615 12.3445
RightLeg  61.0673 -4.50922 -9.31796
RightFoot  -34.4825 0.339919 2.80604
RightToes  0.00048216 0.542163 -0.142577
Spine  38.9622 -3.68592 16.356
Spine1  -3.87162 -0.151094 10.2171
HEad  -49.3011 7.60555 -21.9383
LeftShoulder1  11.7188 -15.7848 -52.9858
LeftArm  -3.26376 1.59623 -26.6135
LeftForeArm  31.8931 -21.7229 -3.47248
LeftHand  -0.25398 0.0180481 5.50724
RightShoulder  8.52774 12.7662 45.7896
RightArm  -15.1865 20.3518 15.3811
RightForeArm  9.84956 63.7733 23.1935
RightHand  -5.81537 14.2075 -33.9111
LeftUpLeg  -46.6947 1.08466 4.78533
LeftLeg  92.9973 -2.17688 21.0296
LeftFoot  -18.6948 0.23996 1.98842
LeftToes  1.06246e-005 4.65856e-005 -8.18505e-006
81
root  20.9655 34.6129 -2.05786 149.599 -82.6269 -138.041
RightUpLeg  -24.2846 -10.305 7.80061
RightLeg  56.3077 -4.77676 -8.10937
RightFoot  -35.5964 0.695 4.34133
RightToes  0.00048216 0.542163 -0.142577
Spine  37.9397 -1.95385 13.8956
Spine1  -5.89838 1.3171 7.59589
HEad  -46.3821 6.21668 -20.7559
LeftShoulder1  10.7271 -15.239 -49.957
LeftArm  -9.00448 10.8634 -20.2789
LeftForeArm  32.6767 -15.2634 -4.12532
LeftHand  -0.25398 0.0180481 5.50724
RightShoulder  7.25499 11.8684 40.9704
RightArm  -18.1092 25.3655 18.1186
RightForeArm  37.0423 76.0803 50.2758
RightHand  -5.28024 12.6165 -33.5414
LeftUpLeg  -55.1379 -0.43308 3.48892
LeftLeg  89.7972 -0.953023 21.217
LeftFoot  -19.2155 0.236272 1.75387
LeftToes  1.06246e-005 4.65856e-005 -8.18505e-006
82
root  17.9084 35.7585 -2.4095 -175.031 -84.2072 -173.934
RightUpLeg  -13.9397 -10.5375 1.59485
RightLeg  46.751 -4.89793 -5.94511
RightFoot  -33.9971 1.11549 6.75882
RightToes  0.00048216 0.542163 -0.142577
Spine  36.5809 0.362756 9.38262
Spine1  -9.2353 2.69103 4.74059
HEad  -41.5668 4.02216 -17.7824
LeftShoulder1  9.11961 -14.1356 -45.0275
LeftArm  -12.5036 19.3628 -13.8993
LeftForeArm  29.4078 -12.7258 -3.48847
LeftHand  -0.25398 0.0180481 5.50724
RightShoulder  5.99982 10.5498 36.7063
RightArm  -18.3739 25.8523 20.2701
RightForeArm  100.252 78.4552 112.877
RightHand  -5.08475 12.0831 -33.2952
LeftUpLeg  -61.4675 -1.58697 0.514652
LeftLeg  82.2004 1.86605 20.3025
LeftFoot  -19.881 0.214885 1.28881
LeftToes  1.06246e-005 4.65856e-005 -8.18505e-006
83
root  14.4697 37.3064 -2.80358 -132.07 -83.642 143.981
RightUpLeg  -3.44932 -11.3224 -4.55191
RightLeg  32.4733 -3.62374 -2.81224
RightFoot  -24.6805 0.995724 10.2586
RightToes  0.00048216 0.542163 -0.142577
Spine  33.5553 2.86125 4.31601
Spine1  -12.2843 3.95173 1.88239
HEad  -35.5944 0.91141 -14.102
LeftShoulder1  7.39803 -12.6907 -39.4723
LeftArm  -11.5857 24.79 -7.25273
LeftForeArm  24.6833 -12.8606 -3.03244
LeftHand  -0.25398 0.0180481 5.50724
RightShoulder  5.34241 9.50797 35.1163
RightArm  -16.3291 21.7397 20.6187
RightForeArm  136.053 70.7124 147.748
RightHand  -4.57025 10.9682 -32.0381
LeftUpLeg  -65.7629 -2.09605 -2.86214
LeftLeg  71.5474 5.15723 17.8113
LeftFoot  -20.0791 0.0816162 -0.51779
LeftToes  1.06246e-005 4.65856e-005 -8.18505e-006
84
root  10.785 38.9037 -3.06151 -118.294 -81.7144 131.887
RightUpLeg  5.10454 -13.5551 -9.46353
RightLeg  18.677 -1.29113 -0.449729
RightFoot  -7.55474 -0.47254 13.2117
RightToes  0.00048216 0.542163 -0.142577
Spine  28.5849 5.11679 1.48946
Spine1  -12.8362 5.73136 -1.62457
HEad  -28.9492 -2.56194 -11.2643
LeftShoulder1  6.16131 -11.5116 -34.9914
LeftArm  -8.13815 26.8663 -0.184517
LeftForeArm  21.501 -13.1251 -3.38116
LeftHand  -0.25398 0.0180481 5.50724
RightShoulder  5.39982 9.40391 35.8483
RightArm  -12.3324 15.4493 19.3185
RightForeArm  145.892 62.0473 159.174
RightHand  -3.90794 9.30071 -30.608
LeftUpLeg  -68.3732 -0.994042 -5.05881
LeftLeg  60.1576 7.8939 15.0926
LeftFoot  -19.51 -0.0643389 -2.54753
LeftToes  1.06246e-005 4.65856e-005 -8.18505e-006
85
root  7.04369 40.3005 -3.10671 -129.594 -80.7869 143.966
RightUpLeg  11.1371 -15.6479 -12.9301
RightLeg  11.9332 0.0159437 1.07538
RightFoot  8.28648 -2.17956 13.0496
RightToes  0.00048216 0.542163 -0.142577
Spine  23.2552 7.0517 2.17119
Spine1  -10.3879 8.08044 -4.87138
HEad  -22.6642 -4.78781 -9.885
LeftShoulder1  5.2488 -10.4021 -31.7015
LeftArm  -3.14783 27.7445 6.39348
LeftForeArm  21.0926 -13.2746 -4.09455
LeftHand  -0.25398 0.0180481 5.50724
RightShoulder  5.80529 10.0596 36.8015
RightArm  -6.20456 10.8444 18.1681
RightForeArm  147.658 55.4195 163.77
RightHand  -3.48161 8.18464 -29.5622
LeftUpLeg  -69.2282 2.29628 -5.3917
LeftLeg  50.0884 9.58742 12.517
LeftFoot  -18.2541 -0.107533 -3.5883
LeftToes  1.06246e-005 4.65856e-005 -8.18505e-006
86
root  3.25983 41.4216 -3.05627 -149.438 -80.234 162.757
RightUpLeg  16.3552 -16.803 -15.2071
RightLeg  12.888 0.444456 1.19419
RightFoot  14.3305 -2.27677 10.3368
RightToes  0.00048216 0.542163 -0.142577
Spine  19.0726 8.4265 4.40909
Spine1  -6.40715 9.96796 -6.10643
HEad  -17.6527 -4.97774 -9.1957
LeftShoulder1  4.23412 -8.73788 -28.4736
LeftArm  2.6314 29.4749 11.3854
LeftForeArm  22.9526 -13.4805 -4.84341
LeftHand  -0.25398 0.0180481 5.50724
RightShoulder  6.03782 10.7242 36.4447
RightArm  1.87722 9.26905 18.941
RightForeArm  150.082 51.9143 165.711
RightHand  -2.94867 6.90693 -27.6762
LeftUpLeg  -68.0099 6.6995 -4.93633
LeftLeg  41.8867 9.49845 9.41824
LeftFoot  -17.3287 -0.128792 -4.43386
LeftToes  1.06246e-005 4.65856e-005 -8.18505e-006
87
root  -0.573191 42.1428 -3.02531 -164.953 -79.6102 176.256
RightUpLeg  21.8368 -16.4688 -16.9477
RightLeg  16.8368 0.0554752 -0.0378196
RightFoot  12.9829 -1.56811 7.67426
RightToes  0.00048216 0.542163 -0.142577
Spine  15.3061 9.20663 5.847
Spine1  -2.27977 10.9289 -5.70652
HEad  -13.3724 -4.34936 -8.1446
LeftShoulder1  3.17712 -6.76445 -24.6976
LeftArm  7.48016 32.0212 14.6694
LeftForeArm  25.0512 -12.362 -5.65309
LeftHand  -0.25398 0.0180481 5.50724
RightShoulder  5.95977 10.9689 35.2105
RightArm  10.1826 8.20581 21.1799
RightForeArm  155.319 50.9463 166.508
RightHand  -2.12776 4.71402 -24.4201
LeftUpLeg  -65.3386 10.3464 -4.71945
LeftLeg  35.0254 8.18113 6.47777
LeftFoot  -17.5335 -0.208138 -5.77137
LeftToes  1.06246e-005 4.65856e-005 -8.18505e-006
